<svg xmlns="http://www.w3.org/2000/svg" viewBox="0 0 100 100" width="100" height="100">
  <!-- Gear/Service Icon -->
  <circle cx="50" cy="50" r="35" fill="none" stroke="currentColor" stroke-width="4"/>
  <circle cx="50" cy="50" r="8" fill="currentColor"/>
  <rect x="45" y="15" width="10" height="15" rx="2" fill="currentColor"/>
  <rect x="45" y="70" width="10" height="15" rx="2" fill="currentColor"/>
  <rect x="15" y="45" width="15" height="10" rx="2" fill="currentColor"/>
  <rect x="70" y="45" width="15" height="10" rx="2" fill="currentColor"/>
  <rect x="25" y="25" width="12" height="8" rx="1" fill="currentColor" transform="rotate(-45 31 29)"/>
  <rect x="63" y="63" width="12" height="8" rx="1" fill="currentColor" transform="rotate(-45 69 67)"/>
  <rect x="63" y="25" width="12" height="8" rx="1" fill="currentColor" transform="rotate(45 69 29)"/>
  <rect x="25" y="63" width="12" height="8" rx="1" fill="currentColor" transform="rotate(45 31 67)"/>
</svg>

